<svg xmlns="http://www.w3.org/2000/svg" viewBox="0 0 48 48">
  <path fill="#EA4335" d="M24 9.5c3.54 0 6.37 1.22 8.74 3.23l6.48-6.48C35.36 2.41 30.03 0 24 0 14.64 0 6.56 5.39 2.56 13.22l7.54 5.85C12.08 12.36 17.57 9.5 24 9.5z"/>
  <path fill="#4285F4" d="M46.5 24c0-1.57-.14-3.08-.4-4.54H24v9.08h12.7c-.55 2.98-2.21 5.5-4.7 7.2l7.22 5.61C43.41 37.41 46.5 31.25 46.5 24z"/>
  <path fill="#FBBC05" d="M10.1 28.93A14.5 14.5 0 0 1 9.3 24c0-1.71.3-3.36.8-4.93l-7.54-5.85A23.96 23.96 0 0 0 0 24c0 3.87.93 7.53 2.56 10.78l7.54-5.85z"/>
  <path fill="#34A853" d="M24 48c6.03 0 11.09-1.99 14.79-5.4l-7.22-5.61c-2 1.35-4.55 2.14-7.57 2.14-6.43 0-11.92-2.86-13.9-9.57l-7.54 5.85C6.56 42.61 14.64 48 24 48z"/>
</svg>
